<svg width="462" height="240" viewBox="0 0 462 240" fill="none" xmlns="http://www.w3.org/2000/svg">
<rect x="154.5" y="97.7529" width="306.7" height="60.9647" rx="30.4823" fill="#FFFDF5"/>
<rect x="154.5" y="97.7529" width="306.7" height="60.9647" rx="30.4823" fill="#FFFDF5"/>
<rect x="154.5" y="97.7529" width="306.7" height="60.9647" rx="30.4823" fill="#3EBDC6"/>
<rect x="154.5" y="97.7529" width="306.7" height="60.9647" rx="30.4823" stroke="#3EBDC6"/>
<rect x="195.585" y="62.5" width="224.206" height="61" rx="30.5" fill="#FFFDF5"/>
<rect x="195.585" y="62.5" width="224.206" height="61" rx="30.5" fill="#FFFDF5"/>
<rect x="195.585" y="62.5" width="224.206" height="61" rx="30.5" fill="#3EBDC6"/>
<rect x="195.585" y="62.5" width="224.206" height="61" rx="30.5" stroke="#3EBDC6"/>
<rect x="242.5" y="22.5" width="136" height="73" rx="36.5" fill="#FFFDF5"/>
<rect x="242.5" y="22.5" width="136" height="73" rx="36.5" fill="#FFFDF5"/>
<rect x="242.5" y="22.5" width="136" height="73" rx="36.5" fill="#3EBDC6"/>
<rect x="242.5" y="22.5" width="136" height="73" rx="36.5" stroke="#3EBDC6"/>
<rect x="0.5" y="134.753" width="306.7" height="60.9647" rx="30.4823" fill="#FFFDF5"/>
<rect x="0.5" y="134.753" width="306.7" height="60.9647" rx="30.4823" fill="#FFFDF5"/>
<rect x="0.5" y="134.753" width="306.7" height="60.9647" rx="30.4823" fill="#A8EAD5"/>
<rect x="0.5" y="134.753" width="306.7" height="60.9647" rx="30.4823" stroke="#A8EAD5"/>
<rect x="41.585" y="99.5" width="224.206" height="61" rx="30.5" fill="#FFFDF5"/>
<rect x="41.585" y="99.5" width="224.206" height="61" rx="30.5" fill="#FFFDF5"/>
<rect x="41.585" y="99.5" width="224.206" height="61" rx="30.5" fill="#A8EAD5"/>
<rect x="41.585" y="99.5" width="224.206" height="61" rx="30.5" stroke="#A8EAD5"/>
<rect x="88.5" y="59.5" width="136" height="73" rx="36.5" fill="#FFFDF5"/>
<rect x="88.5" y="59.5" width="136" height="73" rx="36.5" fill="#FFFDF5"/>
<rect x="88.5" y="59.5" width="136" height="73" rx="36.5" fill="#A8EAD5"/>
<rect x="88.5" y="59.5" width="136" height="73" rx="36.5" stroke="#A8EAD5"/>
<path d="M348.539 196L354.356 211.721L370.077 217.539L354.356 223.356L348.539 239.077L342.721 223.356L327 217.539L342.721 211.721L348.539 196Z" fill="#EFDA3D"/>
<path d="M40.5387 0L46.3561 15.7213L62.0774 21.5387L46.3561 27.3561L40.5387 43.0774L34.7213 27.3561L19 21.5387L34.7213 15.7213L40.5387 0Z" fill="#EFDA3D"/>
</svg>
