<svg width="2095" height="760" viewBox="0 0 2095 760" fill="none" xmlns="http://www.w3.org/2000/svg">
<g filter="url(#filter0_f_332_29)">
<ellipse cx="450" cy="275" rx="350" ry="175" fill="#A8EAD5" fill-opacity="0.5"/>
</g>
<g filter="url(#filter1_f_332_29)">
<ellipse cx="1645" cy="275" rx="350" ry="175" fill="#0096D1" fill-opacity="0.5"/>
</g>
<path d="M378 140L383.402 154.598L398 160L383.402 165.402L378 180L372.598 165.402L358 160L372.598 154.598L378 140Z" fill="#FFF4EA"/>
<path d="M474 275L479.402 289.598L494 295L479.402 300.402L474 315L468.598 300.402L454 295L468.598 289.598L474 275Z" fill="#FFF4EA"/>
<path d="M565 407L570.402 421.598L585 427L570.402 432.402L565 447L559.598 432.402L545 427L559.598 421.598L565 407Z" fill="#FFF4EA"/>
<path d="M171 455L176.402 469.598L191 475L176.402 480.402L171 495L165.598 480.402L151 475L165.598 469.598L171 455Z" fill="#FFF4EA"/>
<path d="M427 566L432.402 580.598L447 586L432.402 591.402L427 606L421.598 591.402L407 586L421.598 580.598L427 566Z" fill="#FFF4EA"/>
<path d="M364 390L369.402 404.598L384 410L369.402 415.402L364 430L358.598 415.402L344 410L358.598 404.598L364 390Z" fill="#FFF4EA"/>
<path d="M190 720L195.402 734.598L210 740L195.402 745.402L190 760L184.598 745.402L170 740L184.598 734.598L190 720Z" fill="#FFF4EA"/>
<path d="M688 161L693.402 175.598L708 181L693.402 186.402L688 201L682.598 186.402L668 181L682.598 175.598L688 161Z" fill="#FFF4EA"/>
<path d="M151 128L156.402 142.598L171 148L156.402 153.402L151 168L145.598 153.402L131 148L145.598 142.598L151 128Z" fill="#FFF4EA"/>
<path d="M1765 181L1759.6 195.598L1745 201L1759.6 206.402L1765 221L1770.4 206.402L1785 201L1770.4 195.598L1765 181Z" fill="#FFF4EA"/>
<path d="M1540 343L1534.6 357.598L1520 363L1534.6 368.402L1540 383L1545.4 368.402L1560 363L1545.4 357.598L1540 343Z" fill="#FFF4EA"/>
<path d="M1912 455L1906.6 469.598L1892 475L1906.6 480.402L1912 495L1917.4 480.402L1932 475L1917.4 469.598L1912 455Z" fill="#FFF4EA"/>
<path d="M1712 505L1706.6 519.598L1692 525L1706.6 530.402L1712 545L1717.4 530.402L1732 525L1717.4 519.598L1712 505Z" fill="#FFF4EA"/>
<path d="M1765 343L1759.6 357.598L1745 363L1759.6 368.402L1765 383L1770.4 368.402L1785 363L1770.4 357.598L1765 343Z" fill="#FFF4EA"/>
<path d="M1893 720L1887.6 734.598L1873 740L1887.6 745.402L1893 760L1898.4 745.402L1913 740L1898.4 734.598L1893 720Z" fill="#FFF4EA"/>
<path d="M1395 161L1389.6 175.598L1375 181L1389.6 186.402L1395 201L1400.4 186.402L1415 181L1400.4 175.598L1395 161Z" fill="#FFF4EA"/>
<path d="M1932 128L1926.6 142.598L1912 148L1926.6 153.402L1932 168L1937.4 153.402L1952 148L1937.4 142.598L1932 128Z" fill="#FFF4EA"/>
<defs>
<filter id="filter0_f_332_29" x="0" y="0" width="900" height="550" filterUnits="userSpaceOnUse" color-interpolation-filters="sRGB">
<feFlood flood-opacity="0" result="BackgroundImageFix"/>
<feBlend mode="normal" in="SourceGraphic" in2="BackgroundImageFix" result="shape"/>
<feGaussianBlur stdDeviation="50" result="effect1_foregroundBlur_332_29"/>
</filter>
<filter id="filter1_f_332_29" x="1195" y="0" width="900" height="550" filterUnits="userSpaceOnUse" color-interpolation-filters="sRGB">
<feFlood flood-opacity="0" result="BackgroundImageFix"/>
<feBlend mode="normal" in="SourceGraphic" in2="BackgroundImageFix" result="shape"/>
<feGaussianBlur stdDeviation="50" result="effect1_foregroundBlur_332_29"/>
</filter>
</defs>
</svg>
