<svg width="195" height="123" viewBox="0 0 195 123" fill="none" xmlns="http://www.w3.org/2000/svg">
<path fill-rule="evenodd" clip-rule="evenodd" d="M113.993 1.88747V14.156C113.993 15.1984 114.803 16.0435 115.802 16.0435H124.976C126.233 16.0435 127.107 17.3472 126.676 18.5786L99.4038 96.4525C98.8254 98.1043 96.5865 98.1061 96.0056 96.4552L69.0475 19.8396C68.6141 18.6077 69.4882 17.3018 70.7461 17.3018H79.3126C80.3119 17.3018 81.122 16.4567 81.122 15.4143V3.14578C81.122 2.10336 80.3119 1.25831 79.3126 1.25831H1.80952C0.810211 1.25831 0.000106812 2.10336 0.000106812 3.14578V121.113C0.000106812 122.155 0.810211 123 1.80952 123H192.702C193.702 123 194.512 122.155 194.512 121.113V1.88747C194.512 0.845049 193.702 0 192.702 0H115.802C114.803 0 113.993 0.845048 113.993 1.88747ZM173.211 105.698C174.316 105.698 175.211 104.803 175.211 103.698V18.0435C175.211 16.9389 174.316 16.0435 173.211 16.0435H149.463C148.626 16.0435 147.877 16.5646 147.587 17.3495L115.894 103.004C115.411 104.31 116.377 105.698 117.77 105.698H173.211ZM48.7193 18.6422C48.4389 17.8395 47.6815 17.3018 46.8312 17.3018H21.9036C20.7991 17.3018 19.9036 18.1972 19.9036 19.3018V52.422C19.9036 53.5266 20.7991 54.422 21.9036 54.422H58.4013C59.7785 54.422 60.7436 53.0626 60.2894 51.7624L48.7193 18.6422ZM19.9036 72.4655C19.9036 71.3609 20.7991 70.4655 21.9036 70.4655H65.5796C66.4047 70.4655 67.1451 70.9722 67.4439 71.7413L80.0639 104.232C80.5731 105.543 79.606 106.957 78.1996 106.957H21.9036C20.7991 106.957 19.9036 106.061 19.9036 104.957V72.4655Z" fill="#3DBCC6"/>
</svg>
