<svg width="153" height="29" viewBox="0 0 153 29" fill="none" xmlns="http://www.w3.org/2000/svg">
<path d="M10.5557 10.8506L10.7715 10.7715L10.8506 10.5557L14.2236 1.44141L17.5967 10.5557L17.6758 10.7715L17.8916 10.8506L27.0059 14.2236L17.8916 17.5967L17.6758 17.6758L17.5967 17.8916L14.2236 27.0068L10.8506 17.8916L10.7715 17.6758L10.5557 17.5967L1.44043 14.2236L10.5557 10.8506Z" fill="#EFDA3D" stroke="#EFDA3D"/>
<path d="M41.6641 10.959L41.8799 10.8799L41.959 10.6641L45.332 1.5498L48.7051 10.6641L48.7842 10.8799L49 10.959L58.1143 14.332L49 17.7051L48.7842 17.7842L48.7051 18L45.332 27.1152L41.959 18L41.8799 17.7842L41.6641 17.7051L32.5488 14.332L41.6641 10.959Z" fill="#EFDA3D" stroke="#EFDA3D"/>
<path d="M72.6641 10.959L72.8799 10.8799L72.959 10.6641L76.332 1.5498L79.7051 10.6641L79.7842 10.8799L80 10.959L89.1143 14.332L80 17.7051L79.7842 17.7842L79.7051 18L76.332 27.1152L72.959 18L72.8799 17.7842L72.6641 17.7051L63.5488 14.332L72.6641 10.959Z" fill="#EFDA3D" stroke="#EFDA3D"/>
<path d="M103.664 10.959L103.88 10.8799L103.959 10.6641L107.332 1.5498L110.705 10.6641L110.784 10.8799L111 10.959L120.114 14.332L111 17.7051L110.784 17.7842L110.705 18L107.332 27.1152L103.959 18L103.88 17.7842L103.664 17.7051L94.5488 14.332L103.664 10.959Z" fill="#EFDA3D" stroke="#EFDA3D"/>
<path d="M134.664 10.959L134.88 10.8799L134.959 10.6641L138.332 1.5498L141.705 10.6641L141.784 10.8799L142 10.959L151.114 14.332L142 17.7051L141.784 17.7842L141.705 18L138.332 27.1152L134.959 18L134.88 17.7842L134.664 17.7051L125.549 14.332L134.664 10.959Z" fill="#FFF4EA" stroke="#EFDA3D"/>
</svg>
