<svg width="464" height="207" viewBox="0 0 464 207" fill="none" xmlns="http://www.w3.org/2000/svg">
<rect x="156.5" y="75.7529" width="306.7" height="60.9647" rx="30.4823" fill="#FFFDF5"/>
<rect x="156.5" y="75.7529" width="306.7" height="60.9647" rx="30.4823" fill="#FFFDF5"/>
<rect x="156.5" y="75.7529" width="306.7" height="60.9647" rx="30.4823" fill="#A8EAD5"/>
<rect x="156.5" y="75.7529" width="306.7" height="60.9647" rx="30.4823" stroke="#A8EAD5"/>
<rect x="197.585" y="40.5" width="224.206" height="61" rx="30.5" fill="#FFFDF5"/>
<rect x="197.585" y="40.5" width="224.206" height="61" rx="30.5" fill="#FFFDF5"/>
<rect x="197.585" y="40.5" width="224.206" height="61" rx="30.5" fill="#A8EAD5"/>
<rect x="197.585" y="40.5" width="224.206" height="61" rx="30.5" stroke="#A8EAD5"/>
<rect x="244.5" y="0.5" width="136" height="73" rx="36.5" fill="#FFFDF5"/>
<rect x="244.5" y="0.5" width="136" height="73" rx="36.5" fill="#FFFDF5"/>
<rect x="244.5" y="0.5" width="136" height="73" rx="36.5" fill="#A8EAD5"/>
<rect x="244.5" y="0.5" width="136" height="73" rx="36.5" stroke="#A8EAD5"/>
<path d="M21.5387 15L27.3561 30.7213L43.0774 36.5387L27.3561 42.3561L21.5387 58.0774L15.7213 42.3561L0 36.5387L15.7213 30.7213L21.5387 15Z" fill="#EFDA3D"/>
<path d="M359.539 163L365.356 178.721L381.077 184.539L365.356 190.356L359.539 206.077L353.721 190.356L338 184.539L353.721 178.721L359.539 163Z" fill="#EFDA3D"/>
<rect x="2.5" y="119.753" width="306.7" height="60.9647" rx="30.4823" fill="#FFFDF5"/>
<rect x="2.5" y="119.753" width="306.7" height="60.9647" rx="30.4823" fill="#FFFDF5"/>
<rect x="2.5" y="119.753" width="306.7" height="60.9647" rx="30.4823" fill="#3EBDC6"/>
<rect x="2.5" y="119.753" width="306.7" height="60.9647" rx="30.4823" stroke="#3EBDC6"/>
<rect x="43.585" y="84.5" width="224.206" height="61" rx="30.5" fill="#FFFDF5"/>
<rect x="43.585" y="84.5" width="224.206" height="61" rx="30.5" fill="#FFFDF5"/>
<rect x="43.585" y="84.5" width="224.206" height="61" rx="30.5" fill="#3EBDC6"/>
<rect x="43.585" y="84.5" width="224.206" height="61" rx="30.5" stroke="#3EBDC6"/>
<rect x="90.5" y="44.5" width="136" height="73" rx="36.5" fill="#FFFDF5"/>
<rect x="90.5" y="44.5" width="136" height="73" rx="36.5" fill="#FFFDF5"/>
<rect x="90.5" y="44.5" width="136" height="73" rx="36.5" fill="#3EBDC6"/>
<rect x="90.5" y="44.5" width="136" height="73" rx="36.5" stroke="#3EBDC6"/>
</svg>
