<svg width="535" height="301" viewBox="0 0 535 301" fill="none" xmlns="http://www.w3.org/2000/svg">
<rect y="238.253" width="338" height="61.9647" rx="30.9823" fill="#FFFDF5"/>
<rect y="238.253" width="338" height="61.9647" rx="30.9823" fill="#FFFDF5"/>
<rect y="238.253" width="338" height="61.9647" rx="30.9823" fill="#A8EAD5"/>
<rect x="45.1309" y="203" width="247.383" height="62" rx="31" fill="#FFFDF5"/>
<rect x="45.1309" y="203" width="247.383" height="62" rx="31" fill="#FFFDF5"/>
<rect x="45.1309" y="203" width="247.383" height="62" rx="31" fill="#A8EAD5"/>
<rect x="96.6655" y="163" width="150.491" height="74" rx="37" fill="#FFFDF5"/>
<rect x="96.6655" y="163" width="150.491" height="74" rx="37" fill="#FFFDF5"/>
<rect x="96.6655" y="163" width="150.491" height="74" rx="37" fill="#A8EAD5"/>
<path fill-rule="evenodd" clip-rule="evenodd" d="M283.735 6.51407V29.3555C283.735 31.2963 285.247 32.8696 287.112 32.8696H304.232C306.577 32.8696 308.208 35.2968 307.404 37.5894L256.508 182.574C255.429 185.649 251.251 185.653 250.167 182.579L199.857 39.9372C199.048 37.6437 200.679 35.2123 203.027 35.2123H219.014C220.879 35.2123 222.391 33.639 222.391 31.6982V8.85678C222.391 6.91601 220.879 5.34271 219.014 5.34271H74.3767C72.5118 5.34271 71 6.91601 71 8.85678V228.486C71 230.427 72.5118 232 74.3767 232H430.623C432.488 232 434 230.427 434 228.486V6.51407C434 4.5733 432.488 3 430.623 3H287.112C285.247 3 283.735 4.5733 283.735 6.51407ZM395.981 199.788C397.086 199.788 397.981 198.892 397.981 197.788V34.8696C397.981 33.765 397.086 32.8696 395.981 32.8696H348.722C347.885 32.8696 347.137 33.3899 346.846 34.1741L286.423 197.092C285.938 198.399 286.905 199.788 288.298 199.788H395.981ZM161.515 36.5513C161.235 35.7493 160.478 35.2123 159.628 35.2123H110.144C109.04 35.2123 108.144 36.1077 108.144 37.2123V102.322C108.144 103.427 109.04 104.322 110.144 104.322H182.427C183.805 104.322 184.77 102.962 184.315 101.661L161.515 36.5513ZM108.144 136.192C108.144 135.087 109.04 134.192 110.144 134.192H194.572C195.397 134.192 196.137 134.698 196.436 135.466L221.33 199.405C221.84 200.716 220.873 202.13 219.466 202.13H110.144C109.04 202.13 108.144 201.235 108.144 200.13V136.192Z" fill="#0096D1"/>
<rect x="247.5" y="224.874" width="286.753" height="56.9477" rx="28.4739" fill="#FFFDF5"/>
<rect x="247.5" y="224.874" width="286.753" height="56.9477" rx="28.4739" fill="#FFFDF5"/>
<rect x="247.5" y="224.874" width="286.753" height="56.9477" rx="28.4739" fill="#3EBDC6"/>
<rect x="247.5" y="224.874" width="286.753" height="56.9477" rx="28.4739" stroke="#3EBDC6"/>
<rect x="285.921" y="191.907" width="209.607" height="56.9808" rx="28.4904" fill="#FFFDF5"/>
<rect x="285.921" y="191.907" width="209.607" height="56.9808" rx="28.4904" fill="#FFFDF5"/>
<rect x="285.921" y="191.907" width="209.607" height="56.9808" rx="28.4904" fill="#3EBDC6"/>
<rect x="285.921" y="191.907" width="209.607" height="56.9808" rx="28.4904" stroke="#3EBDC6"/>
<rect x="329.795" y="154.5" width="127.119" height="68.2028" rx="34.1014" fill="#FFFDF5"/>
<rect x="329.795" y="154.5" width="127.119" height="68.2028" rx="34.1014" fill="#FFFDF5"/>
<rect x="329.795" y="154.5" width="127.119" height="68.2028" rx="34.1014" fill="#3EBDC6"/>
<rect x="329.795" y="154.5" width="127.119" height="68.2028" rx="34.1014" stroke="#3EBDC6"/>
<path d="M485.539 0L491.356 15.7213L507.077 21.5387L491.356 27.3561L485.539 43.0774L479.721 27.3561L464 21.5387L479.721 15.7213L485.539 0Z" fill="#EFDA3D"/>
<path d="M502.539 79L508.356 94.7213L524.077 100.539L508.356 106.356L502.539 122.077L496.721 106.356L481 100.539L496.721 94.7213L502.539 79Z" fill="#EFDA3D"/>
</svg>
