<svg width="191" height="49" viewBox="0 0 191 49" fill="none" xmlns="http://www.w3.org/2000/svg">
<path fill-rule="evenodd" clip-rule="evenodd" d="M45.4117 0.751918V5.63939C45.4117 6.05466 45.7344 6.3913 46.1325 6.3913H49.7871C50.2878 6.3913 50.636 6.91066 50.4642 7.40123L39.5998 38.4242C39.3693 39.0822 38.4774 39.0829 38.246 38.4253L27.5066 7.90358C27.3339 7.41284 27.6821 6.89258 28.1833 6.89258H31.5959C31.994 6.89258 32.3168 6.55594 32.3168 6.14066V1.2532C32.3168 0.837924 31.994 0.501279 31.5959 0.501279H0.720739C0.322639 0.501279 -8.2843e-05 0.837924 -8.2843e-05 1.2532V48.2481C-8.2843e-05 48.6634 0.322639 49 0.720739 49H76.7675C77.1656 49 77.4883 48.6634 77.4883 48.2481V0.751918C77.4883 0.336646 77.1656 0 76.7675 0H46.1325C45.7344 0 45.4117 0.336645 45.4117 0.751918ZM67.7995 42.1074C68.9041 42.1074 69.7995 41.212 69.7995 40.1074V8.3913C69.7995 7.28673 68.9041 6.3913 67.7995 6.3913H60.3797C59.5428 6.3913 58.7944 6.91238 58.504 7.69728L46.7689 39.4134C46.2856 40.7195 47.2519 42.1074 48.6446 42.1074H67.7995ZM19.6901 8.233C19.4097 7.43025 18.6523 6.89258 17.802 6.89258H9.92896C8.82439 6.89258 7.92896 7.78801 7.92896 8.89258V19.6803C7.92896 20.7849 8.82439 21.6803 9.92896 21.6803H21.5705C22.9477 21.6803 23.9128 20.3209 23.4586 19.0207L19.6901 8.233ZM7.92896 30.0716C7.92896 28.967 8.82439 28.0716 9.92896 28.0716H25.3016C26.1267 28.0716 26.8672 28.5783 27.1659 29.3475L31.2587 39.8846C31.7679 41.1955 30.8007 42.6087 29.3944 42.6087H9.92896C8.82439 42.6087 7.92896 41.7133 7.92896 40.6087V30.0716Z" fill="#3EBDC6"/>
<path d="M83.7875 22C83.2862 22 83.0355 21.7314 83.0355 21.1943V7.40137C83.0355 6.86426 83.2862 6.5957 83.7875 6.5957H93.0043C93.5414 6.5957 93.8099 6.82845 93.8099 7.29395V8.56152C93.8099 9.02702 93.5414 9.25977 93.0043 9.25977H86.1722V12.6758H92.4349C92.972 12.6758 93.2406 12.9085 93.2406 13.374V14.6416C93.2406 15.1071 92.972 15.3398 92.4349 15.3398H86.1722V19.3359H93.348C93.8851 19.3359 94.1537 19.5687 94.1537 20.0342V21.3018C94.1537 21.7673 93.8851 22 93.348 22H83.7875ZM96.9681 20.8506C96.5241 20.514 96.4167 20.1738 96.6459 19.8301L97.473 18.584C97.7451 18.1758 98.1426 18.1543 98.6654 18.5195C99.0664 18.7988 99.5892 19.0889 100.234 19.3896C100.885 19.6833 101.569 19.8301 102.286 19.8301C102.787 19.8301 103.27 19.7728 103.736 19.6582C104.201 19.5436 104.556 19.3216 104.799 18.9922C105.043 18.6628 105.164 18.2725 105.164 17.8213C105.164 17.499 105.111 17.2161 105.003 16.9727C104.896 16.7292 104.72 16.5286 104.477 16.3711C104.233 16.2135 103.983 16.0811 103.725 15.9736C103.274 15.7874 102.704 15.6048 102.017 15.4258C101.337 15.2396 100.663 15.0176 99.9974 14.7598C99.403 14.5306 98.8587 14.2155 98.3646 13.8145C97.8705 13.4134 97.4873 12.9622 97.2152 12.4609C96.9431 11.9596 96.807 11.29 96.807 10.4521C96.807 9.45671 97.1293 8.60449 97.7738 7.89551C98.4183 7.18652 99.1595 6.73177 99.9974 6.53125C100.835 6.33073 101.68 6.23047 102.533 6.23047C103.378 6.23047 104.248 6.35938 105.143 6.61719C106.045 6.875 106.726 7.19727 107.184 7.58398C107.635 7.96354 107.746 8.30729 107.517 8.61523L106.647 9.78613C106.353 10.1872 105.959 10.2194 105.465 9.88281C105.15 9.66797 104.717 9.42806 104.165 9.16309C103.621 8.89811 103.052 8.76562 102.457 8.76562C102.035 8.76562 101.645 8.80143 101.286 8.87305C100.936 8.94466 100.624 9.11654 100.352 9.38867C100.08 9.66081 99.9437 9.9974 99.9437 10.3984C99.9437 10.7852 100.044 11.1003 100.244 11.3438C100.445 11.5801 100.667 11.7591 100.911 11.8809C101.154 11.9954 101.401 12.0921 101.652 12.1709C102.425 12.4215 103.116 12.6436 103.725 12.8369C104.334 13.0231 104.896 13.2308 105.411 13.46C106.128 13.7822 106.675 14.1045 107.055 14.4268C107.435 14.749 107.746 15.1895 107.99 15.748C108.24 16.3066 108.366 16.9727 108.366 17.7461C108.366 18.8919 108 19.8408 107.27 20.5928C106.539 21.3376 105.727 21.8174 104.831 22.0322C103.943 22.2542 103.077 22.3652 102.232 22.3652C100.986 22.3652 99.9724 22.2435 99.1918 22C98.4112 21.7637 97.6699 21.3805 96.9681 20.8506ZM110.288 9.3457C109.751 9.3457 109.483 9.11296 109.483 8.64746V7.29395C109.483 6.82845 109.751 6.5957 110.288 6.5957H121.331C121.869 6.5957 122.137 6.82845 122.137 7.29395V8.64746C122.137 9.11296 121.869 9.3457 121.331 9.3457H117.378V21.4092C117.378 21.8031 117.199 22 116.841 22H114.779C114.421 22 114.242 21.8031 114.242 21.4092V9.3457H110.288ZM121.869 22C121.353 22 121.185 21.7637 121.364 21.291L126.627 7.46582C126.849 6.88574 127.186 6.5957 127.637 6.5957H129.141C129.592 6.5957 129.929 6.88574 130.151 7.46582L135.414 21.291C135.593 21.7637 135.425 22 134.91 22H133.202C132.729 22 132.399 21.7529 132.213 21.2588L131.118 18.3691H125.661L124.565 21.2588C124.379 21.7529 124.049 22 123.577 22H121.869ZM126.66 15.7051H130.119L128.797 12.2891C128.64 11.888 128.543 11.598 128.507 11.4189C128.479 11.2327 128.446 10.9606 128.411 10.6025H128.368C128.332 10.9606 128.296 11.2327 128.26 11.4189C128.231 11.598 128.138 11.888 127.981 12.2891L126.66 15.7051ZM138.078 22C137.577 22 137.327 21.7314 137.327 21.1943V7.40137C137.327 6.86426 137.577 6.5957 138.078 6.5957H139.668C140.284 6.5957 140.75 6.84635 141.065 7.34766L146.543 16.1455H146.619C146.583 15.7158 146.565 15.2861 146.565 14.8564V7.40137C146.565 6.86426 146.815 6.5957 147.317 6.5957H148.95C149.451 6.5957 149.702 6.86426 149.702 7.40137V21.1943C149.702 21.7314 149.451 22 148.95 22H147.467C146.851 22 146.386 21.7493 146.071 21.248L140.485 12.2891H140.41C140.445 12.7188 140.463 13.1484 140.463 13.5781V21.1943C140.463 21.7314 140.213 22 139.711 22H138.078ZM152.591 9.3457C152.054 9.3457 151.786 9.11296 151.786 8.64746V7.29395C151.786 6.82845 152.054 6.5957 152.591 6.5957H163.634C164.171 6.5957 164.44 6.82845 164.44 7.29395V8.64746C164.44 9.11296 164.171 9.3457 163.634 9.3457H159.681V21.4092C159.681 21.8031 159.502 22 159.144 22H157.081C156.723 22 156.544 21.8031 156.544 21.4092V9.3457H152.591ZM167.276 22C166.774 22 166.524 21.7314 166.524 21.1943V7.40137C166.524 6.86426 166.774 6.5957 167.276 6.5957H176.493C177.03 6.5957 177.298 6.82845 177.298 7.29395V8.56152C177.298 9.02702 177.03 9.25977 176.493 9.25977H169.661V12.6758H175.923C176.46 12.6758 176.729 12.9085 176.729 13.374V14.6416C176.729 15.1071 176.46 15.3398 175.923 15.3398H169.661V19.3359H176.836C177.373 19.3359 177.642 19.5687 177.642 20.0342V21.3018C177.642 21.7673 177.373 22 176.836 22H167.276ZM84.2923 27.3047C84.1133 26.832 84.2816 26.5957 84.7972 26.5957H86.5052C86.9851 26.5957 87.3145 26.8428 87.4935 27.3369L90.7806 36.3066C90.9453 36.765 91.042 37.0729 91.0707 37.2305C91.0993 37.3809 91.1315 37.6351 91.1673 37.9932H91.2103C91.2461 37.6351 91.2783 37.3809 91.307 37.2305C91.3356 37.0729 91.4323 36.765 91.597 36.3066L94.8841 27.3369C95.0632 26.8428 95.3926 26.5957 95.8724 26.5957H97.5804C98.0961 26.5957 98.2643 26.832 98.0853 27.3047L92.9505 41.1299C92.7357 41.71 92.3991 42 91.9408 42H90.4369C89.9785 42 89.642 41.71 89.4271 41.1299L84.2923 27.3047ZM100.749 42C100.248 42 99.9974 41.7314 99.9974 41.1943V27.4014C99.9974 26.8643 100.248 26.5957 100.749 26.5957H102.382C102.883 26.5957 103.134 26.8643 103.134 27.4014V41.1943C103.134 41.7314 102.883 42 102.382 42H100.749ZM107.324 42C106.822 42 106.572 41.7314 106.572 41.1943V27.4014C106.572 26.8643 106.822 26.5957 107.324 26.5957H112.297C114.51 26.5957 116.125 26.9395 117.142 27.627C118.159 28.3073 118.667 29.4173 118.667 30.957C118.667 32.1029 118.256 33.016 117.432 33.6963C116.608 34.3766 115.563 34.8278 114.295 35.0498V35.0713C114.983 35.3291 115.502 35.6872 115.853 36.1455C116.204 36.6038 116.49 37.0049 116.712 37.3486L119.076 41.0762C119.469 41.6921 119.333 42 118.667 42H116.798C116.404 42 116.082 41.7887 115.831 41.3662L113.661 37.7461C113.425 37.3594 112.992 36.9368 112.362 36.4785C111.739 36.013 111.119 35.7803 110.503 35.7803H109.708V41.1943C109.708 41.7314 109.458 42 108.956 42H107.324ZM109.708 33.1162H111.631C113.064 33.1162 114.08 32.9551 114.682 32.6328C115.291 32.3034 115.595 31.7842 115.595 31.0752C115.595 30.3018 115.301 29.8005 114.714 29.5713C114.134 29.335 113.278 29.2168 112.147 29.2168H109.708V33.1162ZM121.364 29.3457C120.827 29.3457 120.558 29.113 120.558 28.6475V27.2939C120.558 26.8285 120.827 26.5957 121.364 26.5957H132.407C132.944 26.5957 133.212 26.8285 133.212 27.2939V28.6475C133.212 29.113 132.944 29.3457 132.407 29.3457H128.453V41.4092C128.453 41.8031 128.274 42 127.916 42H125.854C125.496 42 125.317 41.8031 125.317 41.4092V29.3457H121.364ZM135.296 35.5869V27.1865C135.296 26.7926 135.547 26.5957 136.048 26.5957H137.681C138.182 26.5957 138.433 26.7926 138.433 27.1865V35.4795C138.433 37.4131 138.716 38.6234 139.282 39.1104C139.855 39.5902 140.499 39.8301 141.215 39.8301C141.931 39.8301 142.572 39.5902 143.138 39.1104C143.711 38.6234 143.997 37.4131 143.997 35.4795V27.1865C143.997 26.7926 144.248 26.5957 144.749 26.5957H146.382C146.883 26.5957 147.134 26.7926 147.134 27.1865V35.5869C147.134 38.0934 146.604 39.8516 145.544 40.8613C144.484 41.8639 143.041 42.3652 141.215 42.3652C139.389 42.3652 137.946 41.8639 136.886 40.8613C135.826 39.8516 135.296 38.0934 135.296 35.5869ZM150.088 42C149.573 42 149.404 41.7637 149.583 41.291L154.847 27.4658C155.069 26.8857 155.406 26.5957 155.857 26.5957H157.361C157.812 26.5957 158.148 26.8857 158.37 27.4658L163.634 41.291C163.813 41.7637 163.645 42 163.129 42H161.421C160.949 42 160.619 41.7529 160.433 41.2588L159.337 38.3691H153.88L152.785 41.2588C152.598 41.7529 152.269 42 151.796 42H150.088ZM154.879 35.7051H158.338L157.017 32.2891C156.859 31.888 156.763 31.598 156.727 31.4189C156.698 31.2327 156.666 30.9606 156.63 30.6025H156.587C156.551 30.9606 156.516 31.2327 156.48 31.4189C156.451 31.598 156.358 31.888 156.201 32.2891L154.879 35.7051ZM166.298 42C165.797 42 165.546 41.7314 165.546 41.1943V27.4014C165.546 26.8643 165.797 26.5957 166.298 26.5957H168.038C168.468 26.5957 168.683 26.8643 168.683 27.4014V39.3359H174.946C175.483 39.3359 175.751 39.5687 175.751 40.0342V41.3018C175.751 41.7673 175.483 42 174.946 42H166.298Z" fill="#3EBDC6"/>
</svg>
