<svg width="430" height="238" viewBox="0 0 430 238" fill="none" xmlns="http://www.w3.org/2000/svg">
<rect x="143.826" y="106.012" width="285.374" height="56.67" rx="28.335" fill="#FFFDF5"/>
<rect x="143.826" y="106.012" width="285.374" height="56.67" rx="28.335" fill="#FFFDF5"/>
<rect x="143.826" y="106.012" width="285.374" height="56.67" rx="28.335" fill="#FFF4EA"/>
<rect x="143.826" y="106.012" width="285.374" height="56.67" rx="28.335" stroke="#3EBDC6"/>
<rect x="181.563" y="72.7026" width="209.597" height="57.7028" rx="28.8514" fill="#FFFDF5"/>
<rect x="181.563" y="72.7026" width="209.597" height="57.7028" rx="28.8514" fill="#FFFDF5"/>
<rect x="181.563" y="72.7026" width="209.597" height="57.7028" rx="28.8514" fill="#FFF4EA"/>
<rect x="0.5" y="140.448" width="285.374" height="56.67" rx="28.335" fill="#FFFDF5"/>
<rect x="0.5" y="140.448" width="285.374" height="56.67" rx="28.335" fill="#FFFDF5"/>
<rect x="0.5" y="140.448" width="285.374" height="56.67" rx="28.335" fill="#A8EAD5"/>
<rect x="0.5" y="140.448" width="285.374" height="56.67" rx="28.335" stroke="#A8EAD5"/>
<rect x="38.7373" y="107.638" width="208.597" height="56.7028" rx="28.3514" fill="#FFFDF5"/>
<rect x="38.7373" y="107.638" width="208.597" height="56.7028" rx="28.3514" fill="#FFFDF5"/>
<rect x="38.7373" y="107.638" width="208.597" height="56.7028" rx="28.3514" fill="#A8EAD5"/>
<rect x="38.7373" y="107.638" width="208.597" height="56.7028" rx="28.3514" stroke="#A8EAD5"/>
<rect x="82.4004" y="70.4106" width="126.505" height="67.8711" rx="33.9356" fill="#FFFDF5"/>
<rect x="82.4004" y="70.4106" width="126.505" height="67.8711" rx="33.9356" fill="#FFFDF5"/>
<rect x="82.4004" y="70.4106" width="126.505" height="67.8711" rx="33.9356" fill="#A8EAD5"/>
<rect x="82.4004" y="70.4106" width="126.505" height="67.8711" rx="33.9356" stroke="#A8EAD5"/>
<path d="M324.382 197.416L329.796 212.047L344.428 217.461L329.796 222.876L324.382 237.507L318.968 222.876L304.336 217.461L318.968 212.047L324.382 197.416Z" fill="#EFDA3D"/>
<path d="M137.046 0L142.46 14.6317L157.092 20.0459L142.46 25.4601L137.046 40.0917L131.632 25.4601L117 20.0459L131.632 14.6317L137.046 0Z" fill="#EFDA3D"/>
<rect x="225.228" y="35.4751" width="127.505" height="68.8711" rx="34.4356" fill="#FFFDF5"/>
<rect x="225.228" y="35.4751" width="127.505" height="68.8711" rx="34.4356" fill="#FFFDF5"/>
<rect x="225.228" y="35.4751" width="127.505" height="68.8711" rx="34.4356" fill="#FFF4EA"/>
</svg>
