<svg width="178" height="112" viewBox="0 0 178 112" fill="none" xmlns="http://www.w3.org/2000/svg">
<path fill-rule="evenodd" clip-rule="evenodd" d="M104.059 1.71374V12.8531C104.059 13.7995 104.799 14.5668 105.711 14.5668H114.086C115.233 14.5668 116.031 15.7505 115.637 16.8686L90.7417 87.5748C90.2136 89.0745 88.1699 89.0761 87.6396 87.5772L63.0307 18.0135C62.6351 16.895 63.433 15.7093 64.5813 15.7093H72.4013C73.3135 15.7093 74.053 14.942 74.053 13.9955V2.85623C74.053 1.90976 73.3135 1.14249 72.4013 1.14249H1.6521C0.739868 1.14249 0.000366211 1.90976 0.000366211 2.85623V109.965C0.000366211 110.911 0.739868 111.679 1.6521 111.679H175.91C176.822 111.679 177.562 110.911 177.562 109.965V1.71374C177.562 0.767268 176.822 0 175.91 0H105.711C104.799 0 104.059 0.767268 104.059 1.71374ZM157.943 95.9695C159.048 95.9695 159.943 95.074 159.943 93.9695V16.5668C159.943 15.4622 159.048 14.5668 157.943 14.5668H136.557C135.721 14.5668 134.974 15.0863 134.682 15.8695L105.889 93.2721C105.403 94.5788 106.369 95.9695 107.763 95.9695H157.943ZM44.5162 17.0465C44.2348 16.2454 43.4783 15.7093 42.6292 15.7093H20.1694C19.0648 15.7093 18.1694 16.6047 18.1694 17.7093V47.4128C18.1694 48.5174 19.0648 49.4128 20.1694 49.4128H53.0618C54.4404 49.4128 55.4056 48.0508 54.9487 46.7501L44.5162 17.0465ZM18.1694 65.9796C18.1694 64.8751 19.0648 63.9796 20.1694 63.9796H59.7484C60.5722 63.9796 61.3117 64.4848 61.6114 65.2521L72.9879 94.3844C73.5 95.6959 72.5328 97.1119 71.1249 97.1119H20.1694C19.0648 97.1119 18.1694 96.2165 18.1694 95.1119V65.9796Z" fill="#FFF4EA"/>
</svg>
